<svg width="32" height="32" viewBox="0 0 32 32" fill="none" xmlns="http://www.w3.org/2000/svg">
<g clip-path="url(#clip0_2_2)">
<path d="M3 0.0039978H29C30.657 0.0039978 32 1.347 32 3.004V29.004C32 30.661 30.657 32.004 29 32.004H3C1.343 32.004 0 30.661 0 29.004V3.004C0 1.347 1.343 0.0039978 3 0.0039978V0.0039978Z" fill="#BF392C"/>
<path d="M4 6.004H29C30.657 6.004 32 7.347 32 9.004V29.004C32 30.661 30.657 32.004 29 32.004H4V6.004Z" fill="#E2574C"/>
<path d="M11 15.004V18.004H24V15.004H11V15.004ZM11 22.004H24V20.004H11V22.004V22.004Z" fill="#B5463D"/>
<path d="M4 2.004H28C29.104 2.004 30 2.9 30 4.004V6.004H4C2.896 6.004 2 5.108 2 4.004C2 2.9 2.896 2.004 4 2.004V2.004Z" fill="#E4E7E7"/>
<path d="M4 6.004H5V32.004H4V6.004V6.004Z" fill="#E5685E"/>
</g>
<defs>
<clipPath id="clip0_2_2">
<rect width="32" height="32" fill="white"/>
</clipPath>
</defs>
</svg>
